<?xml version="1.0" encoding="utf-8"?>
<!-- Generator: Adobe Illustrator 18.1.1, SVG Export Plug-In . SVG Version: 6.00 Build 0)  -->
<svg version="1.1" id="Layer_1" xmlns="http://www.w3.org/2000/svg" xmlns:xlink="http://www.w3.org/1999/xlink" x="0px" y="0px"
	 viewBox="50.2 323.2 511.5 145.6" enable-background="new 50.2 323.2 511.5 145.6" xml:space="preserve">
<g>
	<g>
		<path fill="#6D2077" d="M99.9,467L79.5,438L69,442.6c-2.5,1.1-4.8-0.3-4.8-3.5l-0.1-35.9L53,400.5c-2-0.6-2.8-1.7-2.8-3
			c0-0.9,0.3-1.8,1-2.9l20.1-28.9l-7.4-9.1c-0.1-0.2-1-1.2-1-2.6c0-1.4,1-2.6,2.9-3.2l32.6-11.2l-0.9-11.8c0-0.8-0.1-3.8,3.2-3.8
			c0.4,0,1,0.2,1.6,0.3l32.6,10.9l6.1-10.1c0.1-0.3,1.2-1.8,2.9-1.8c1,0,2,0.6,2.9,1.8l20.2,28.8l10.6-4.4c0,0,0.7-0.3,1.6-0.3
			c0.7,0,3.1,0.3,3.1,3.8l0.1,35.9l11.1,2.7c0.7,0.2,2.8,0.9,2.8,3.3c0,0.8-0.3,1.7-0.9,2.4l-20.1,29.1l7.3,9.1c0.6,0.8,1,1.2,1,2.4
			c0,0.9-0.4,2.6-2.8,3.3l-32.8,11.2l0.9,11.8c0,3.5-1.9,4.2-4.7,3.5l-32.8-10.9l-6,10.2c-0.3,0.6-1.2,1.8-2.9,1.8
			C101.8,468.8,100.8,468.2,99.9,467 M107.8,412c1.6,0.5,3.6-0.5,4.5-1.8l8.3-12.1l-13.5,4.7c-2.5,0.9-5.2,0.3-7-1.8l-27.2-33.6
			L53,395.9c-0.7,1.1-0.7,2,0.6,2.3L107.8,412z M106.3,400.6l13.5-4.7l-13.5-4.4c-2.8-0.9-4.5-3.5-4.5-5.9l-3.2-43.8l-32.2,11.1
			c-1,0.5-1.2,0.8-1.2,1.2c0,0.5,0.1,0.8,0.4,1.1l36,44.2c0.9,0.9,2,1.5,3.2,1.5C105.4,400.9,106.3,400.6,106.3,400.6 M66.3,403.8
			l0.1,35.2c0,1.2,0.4,2.1,1.7,1.5l51.7-22c2.5-1.1,2.5-4.1,2.5-4.2v-14.9l-8.3,12.1c-1.6,2.4-4.7,3.2-6.7,2.7L66.3,403.8z
			 M81.6,437.3l20.1,28.3c0.9,1.4,1.6,1.1,2.2,0.2l29.4-49.4c1-1.7,0.7-3.5-0.3-5l-8.4-12v14.9c0,0.2,0,4.7-3.8,6.4L81.6,437.3z
			 M103.8,385.5c0.1,1.8,1.3,3.3,3.2,3.9l13.5,4.4l-8.4-12c-1.8-2.6-2.2-4.5-0.4-7.4l22.1-37.4l-32.2-10.6c-1.3-0.5-1.9,0-1.9,1.2
			L103.8,385.5z M113.4,375.6c-1.2,2-0.7,3,0.4,5l8.4,12l-0.1-14.8c0-3.2,1.8-5.5,3.9-6.4l39-16.7l-19.9-28.3
			c-0.7-1.1-1.6-1.5-2.3-0.2L113.4,375.6z M112.9,454.9l32.2,10.8c0.9,0.3,2.2,0.2,2-1.2l-4.2-58c-0.1-2-1.6-3.3-3.1-3.8l-13.5-4.5
			l8.4,12c1.5,2.3,1.7,5.2,0.3,7.6L112.9,454.9z M126.8,373.5c-1.6,0.6-2.5,2.6-2.5,4.2v14.8l8.4-12.1c1.3-2,3.8-3.5,6.7-2.7
			l40.9,10.5l-0.1-35.3c0-1.7-0.6-1.7-0.9-1.7c-0.4,0-0.9,0.1-0.9,0.1L126.8,373.5z M146.6,391.1l27.4,33.5l19.8-28.5
			c0.6-0.8,0.7-2.1-0.6-2.4l-52.6-13.3c-3.2-1.1-5.4,0.5-6.1,1.5l-8.4,12l13.5-4.5C142.1,388.3,144.8,388.8,146.6,391.1
			 M148.1,450.2l32.2-11.1c1.2-0.5,1.7-1.2,0.9-2.3L145,392.4c-1.3-1.5-2.8-1.7-4.7-1.1l-13.5,4.5l13.5,4.5c2,0.8,4.4,2.6,4.7,5.8
			L148.1,450.2z"/>
	</g>
	<path fill="#6D2077" d="M492.5,331.7H232.8c0,0-10.9,0-10.9,10.9v38.3c0,0,0,10.9,10.9,10.9h259.7c10.9,0,10.9-10.9,10.9-10.9
		v-38.3C503.5,331.7,492.5,331.7,492.5,331.7z M261.7,373c0,0.5,0,0.8-0.8,0.9c-1.5,0.3-4.9,0.7-8.4,0.7c-10.7,0-12.9-4.1-12.9-11.2
		v-8.1c0-7,4.1-10.5,11.9-10.5c3.4,0,7.8,0.3,9.1,0.7c0.3,0.1,0.4,0.2,0.4,0.5l-0.3,6.6c0,0.4-0.3,0.6-0.7,0.6h-2.1
		c-0.4,0-0.5-0.2-0.6-0.6l-0.6-3.8c-1.2-0.2-3.1-0.3-5.1-0.3c-5.1,0-6.7,3.4-6.7,6.7l0,8.2c0,4.8,1.8,7.2,8.1,7.2
		c2.4,0,5-0.3,7.7-0.7c0.6-0.1,0.9,0,0.9,0.6L261.7,373L261.7,373z M275.2,373.7c0,0.2-0.2,0.4-0.4,0.4h-8.7c-0.3,0-0.4-0.2-0.4-0.4
		v-2c0-0.4,0.1-0.5,0.4-0.6l0.7-0.1c1-0.1,1.2-0.3,1.2-1.3v-21.4c0-1.1-0.1-1.2-1.1-1.3l-0.8-0.1c-0.4-0.1-0.5-0.2-0.5-0.6v-1.7
		c0-0.4,0.1-0.5,0.6-0.6l3.1-0.5c1.2-0.2,1.9-0.3,2.5-0.3c0.8,0,1,0.4,1,1v25.7c0,0.9,0.1,1.1,1.2,1.2l0.7,0.1
		c0.3,0,0.4,0.2,0.4,0.5L275.2,373.7L275.2,373.7z M288.4,373.7c0,0.3-0.1,0.4-0.4,0.6c-0.5,0.2-1.6,0.3-2.9,0.3c-3.4,0-4-1.9-4-4.3
		v-10.3c0-2.4-0.9-2.8-2.5-2.8c-1.1,0-2.2,0.2-3.6,0.5c-0.3,0-0.6,0-0.6-0.4v-1.8c0-0.4,0.1-0.6,0.4-0.8c0.9-0.4,2.8-1.1,5.3-1.1
		c3.5,0,5.8,1.1,5.8,5.5v10.7c0,1.2,0.4,1.5,1.1,1.5c0.3,0,0.5,0,0.9-0.1c0.4,0,0.5,0,0.5,0.5L288.4,373.7L288.4,373.7z
		 M303.8,373.5c0,0.2,0,0.4-0.4,0.6c-0.6,0.2-2.1,0.5-4.2,0.5c-6,0-7.2-2.8-7.2-5.9V368c0-3.2,1.1-6,7.2-6c2.1,0,3.4,0.2,4.1,0.3
		c0.4,0.1,0.4,0.3,0.4,0.6v2.2c0,0.3-0.2,0.4-0.5,0.4c-1.3-0.1-1.7-0.1-2.8-0.1c-2.3,0-3.6,0.7-3.6,2.5v0.7c0,1.9,1.3,2.5,3.6,2.5
		c1.1,0,1.9-0.1,2.9-0.4c0.5-0.1,0.5,0,0.5,0.4V373.5z M312.4,373.7c0,0.3-0.1,0.4-0.4,0.6c-0.5,0.2-1.6,0.3-2.9,0.3
		c-3.4,0-4-1.9-4-4.3v-10c0-2.6-0.7-3.4-3.8-3.4c-1.3,0-3,0-3.9,0.2l-0.6,3c-0.1,0.4-0.2,0.6-0.6,0.6h-2c-0.4,0-0.5-0.1-0.6-0.6
		l-0.3-4.9c0-0.7-0.1-0.9,0.4-1.1c0.8-0.2,4.6-0.5,7.6-0.5c5.4,0,8.6,0.7,8.6,6.8v9.4c0,1.2,0.4,1.5,1.1,1.5c0.3,0,0.5,0,0.9-0.1
		c0.4,0,0.5,0,0.5,0.5L312.4,373.7L312.4,373.7z M327.6,373.4c0,0.5-0.2,0.6-0.5,0.7c-0.7,0.2-2.3,0.5-4.2,0.5
		c-3.6,0-5.4-1.1-5.4-4.7v-12.5h-1.9c-0.4,0-0.5-0.2-0.5-0.5v-2.3c0-0.4,0.2-0.5,0.5-0.5h1.1c2.1,0,2.4-2.8,2.9-4.2
		c0.2-0.6,0.6-0.7,1.1-0.7h1.3c0.4,0,0.5,0.2,0.5,0.5v4.4h4.2c0.4,0,0.5,0.2,0.5,0.5v2.3c0,0.4-0.2,0.5-0.5,0.5h-4.3v11.9
		c0,1.5,0.7,1.9,2.3,1.9c1.1,0,2.3-0.2,2.6-0.2c0.3,0,0.4,0.1,0.4,0.4L327.6,373.4L327.6,373.4z M342.9,373.4c0,0.5-0.2,0.6-0.5,0.7
		c-0.7,0.2-2.3,0.5-4.2,0.5c-3.6,0-5.4-1.1-5.4-4.7v-12.5h-1.9c-0.4,0-0.5-0.2-0.5-0.5v-2.3c0-0.4,0.2-0.5,0.5-0.5h1.1
		c2.1,0,2.4-2.8,2.9-4.2c0.2-0.6,0.6-0.7,1.1-0.7h1.3c0.4,0,0.5,0.2,0.5,0.5v4.4h4.2c0.4,0,0.5,0.2,0.5,0.5v2.3
		c0,0.4-0.2,0.5-0.5,0.5h-4.3v11.9c0,1.5,0.7,1.9,2.3,1.9c1.1,0,2.3-0.2,2.6-0.2c0.3,0,0.4,0.1,0.4,0.4L342.9,373.4L342.9,373.4z
		 M358.3,373.5c0,0.2,0,0.4-0.4,0.6c-0.6,0.2-2.1,0.5-4.2,0.5c-6,0-7.2-2.8-7.2-5.9V368c0-3.2,1.1-6,7.2-6c2.1,0,3.4,0.2,4.1,0.3
		c0.4,0.1,0.4,0.3,0.4,0.6v2.2c0,0.3-0.2,0.4-0.5,0.4c-1.3-0.1-1.7-0.1-2.8-0.1c-2.3,0-3.6,0.7-3.6,2.5v0.7c0,1.9,1.3,2.5,3.6,2.5
		c1.1,0,1.9-0.1,2.9-0.4c0.5-0.1,0.5,0,0.5,0.4V373.5z M366.9,373.7c0,0.3-0.1,0.4-0.4,0.6c-0.5,0.2-1.6,0.3-2.9,0.3
		c-3.4,0-4-1.9-4-4.3v-10c0-2.6-0.7-3.4-3.8-3.4c-1.3,0-3,0-3.9,0.2l-0.6,3c-0.1,0.4-0.2,0.6-0.6,0.6h-2c-0.4,0-0.5-0.1-0.6-0.6
		l-0.3-4.9c0-0.7-0.1-0.9,0.4-1.1c0.8-0.2,4.6-0.5,7.6-0.5c5.4,0,8.6,0.7,8.6,6.8v9.4c0,1.2,0.4,1.5,1.1,1.5c0.3,0,0.5,0,0.9-0.1
		c0.4,0,0.5,0,0.5,0.5L366.9,373.7L366.9,373.7z M379.4,373.7c0,0.2-0.2,0.4-0.4,0.4h-8.7c-0.3,0-0.4-0.2-0.4-0.4v-2
		c0-0.4,0.1-0.5,0.4-0.6l0.7-0.1c1-0.1,1.2-0.3,1.2-1.3v-10.7c0-1.1-0.2-1.2-1.1-1.3l-0.8-0.2c-0.3,0-0.4-0.2-0.4-0.5v-1.7
		c0-0.4,0.1-0.6,0.6-0.7l3-0.4c0.8-0.2,1.6-0.3,2.2-0.3c1.1,0,1.4,0.6,1.4,1.5v14.4c0,0.9,0.1,1.1,1.2,1.2l0.7,0.1
		c0.3,0,0.4,0.2,0.4,0.5L379.4,373.7L379.4,373.7z M392.5,373.7c0,0.3-0.1,0.4-0.4,0.6c-0.5,0.2-1.6,0.3-2.9,0.3c-3.4,0-4-1.9-4-4.3
		v-10.3c0-2.4-0.9-2.8-2.5-2.8c-1.1,0-2.2,0.3-3.5,0.7c-0.3,0.1-0.6,0-0.6-0.4v-1.9c0-0.4,0.1-0.6,0.4-0.8c0.9-0.4,2.8-1.2,5.3-1.2
		c3.5,0,5.8,1.1,5.8,5.5v10.7c0,1.2,0.4,1.5,1.1,1.5c0.3,0,0.5,0,0.9-0.1c0.4,0,0.5,0,0.5,0.5V373.7z M408.8,373.5
		c0,0.4-0.2,0.6-0.5,0.6c-0.8,0.3-2,0.4-3.1,0.4c-6.6,0-9.7-2.2-9.7-7.4V361c0-3.1,1.5-5.6,4.5-6.4c0.2-0.1,0.4,0,0.4,0.3v12.3
		c0,3.4,1.7,4.3,4.8,4.3c1.2,0,2.2-0.2,3-0.4c0.4-0.1,0.5,0,0.5,0.3V373.5z M414.9,367.2c0,3.1-1.5,5.6-4.5,6.4
		c-0.2,0.1-0.4,0.1-0.4-0.3V361c0-3.4-1.7-4.3-4.8-4.3c-1.1,0-2.1,0.2-2.8,0.4c-0.4,0-0.5,0.1-0.5-0.3v-2.1c0-0.4,0.1-0.6,0.5-0.6
		c0.7-0.3,1.8-0.4,2.8-0.4c6.6,0,9.7,2.2,9.7,7.4V367.2z M431.8,373.5c0,0.4-0.2,0.6-0.5,0.6c-0.8,0.3-2,0.4-3.1,0.4
		c-6.6,0-9.7-2.2-9.7-7.4V361c0-3.1,1.5-5.6,4.5-6.4c0.2-0.1,0.4,0,0.4,0.3v12.3c0,3.4,1.7,4.3,4.8,4.3c1.2,0,2.2-0.2,3-0.4
		c0.4-0.1,0.5,0,0.5,0.3V373.5z M437.9,367.2c0,3.1-1.5,5.6-4.5,6.4c-0.2,0.1-0.4,0.1-0.4-0.3V361c0-3.4-1.7-4.3-4.8-4.3
		c-1.1,0-2.1,0.2-2.8,0.4c-0.4,0-0.5,0.1-0.5-0.3v-2.1c0-0.4,0.1-0.6,0.5-0.6c0.7-0.3,1.8-0.4,2.8-0.4c6.6,0,9.7,2.2,9.7,7.4V367.2z
		 M442.1,361.3c0-5.3,1.5-7.7,6.8-7.7c2.5,0,4.7,0.6,5.6,1c0.4,0.2,0.4,0.4,0.4,0.8v2c0,0.3-0.2,0.4-0.5,0.4
		c-0.6-0.1-1.9-0.6-3.4-0.6c-2.9,0-4,0.9-4,4.2v5.7c0,3.5,1.1,4.2,4,4.2c1.6,0,3-0.4,3.4-0.5c0.4-0.1,0.5,0,0.5,0.4v2.1
		c0,0.3-0.2,0.5-0.6,0.6c-0.7,0.3-2.9,0.9-5.4,0.9c-5.4,0-6.8-2.4-6.8-7.7L442.1,361.3L442.1,361.3z M463.3,357.1
		c0,0.3-0.1,0.4-0.4,0.5l-0.7,0.1c-0.6,0.1-1.1,0.5-1.1,1.3v16.1c0,5.2-1.9,7.2-10.6,7.2c-2.2,0-5.7-0.1-6.7-0.4
		c-0.4-0.1-0.6-0.2-0.6-0.6v-2.3c0-0.5,0.2-0.6,0.5-0.6c1.9,0.2,4.5,0.4,6.6,0.4c4.1,0,5.9-0.9,5.9-3.8v-20.1c0-0.6,0.3-1.1,1.2-1.1
		c0.5,0,1.8,0.2,5.4,0.8c0.3,0,0.5,0.1,0.5,0.5L463.3,357.1L463.3,357.1z M478.6,373.5c0,0.2,0,0.4-0.4,0.6
		c-0.6,0.2-2.1,0.5-4.2,0.5c-6,0-7.2-2.8-7.2-5.9V368c0-3.2,1.1-6,7.2-6c2.1,0,3.4,0.2,4.1,0.3c0.4,0.1,0.4,0.3,0.4,0.6v2.2
		c0,0.3-0.2,0.4-0.5,0.4c-1.3-0.1-1.7-0.1-2.8-0.1c-2.3,0-3.6,0.7-3.6,2.5v0.7c0,1.9,1.3,2.5,3.6,2.5c1.1,0,1.9-0.1,2.9-0.4
		c0.5-0.1,0.5,0,0.5,0.4V373.5z M487.3,373.7c0,0.3-0.1,0.4-0.4,0.6c-0.5,0.2-1.6,0.3-2.9,0.3c-3.4,0-4-1.9-4-4.3v-10
		c0-2.6-0.7-3.4-3.8-3.4c-1.3,0-3,0-3.9,0.2l-0.6,3c-0.1,0.4-0.2,0.6-0.6,0.6h-2c-0.4,0-0.5-0.1-0.6-0.6l-0.3-4.9
		c0-0.7-0.1-0.9,0.4-1.1c0.8-0.2,4.6-0.5,7.6-0.5c5.4,0,8.6,0.7,8.6,6.8v9.4c0,1.2,0.4,1.5,1.1,1.5c0.3,0,0.5,0,0.9-0.1
		c0.4,0,0.5,0,0.5,0.5L487.3,373.7L487.3,373.7z"/>
	<path fill="#6D2077" d="M364.2,400.3H232.8c0,0-10.9,0-10.9,10.9v38.3c0,0,0,10.9,10.9,10.9h131.3c10.9,0,10.9-10.9,10.9-10.9
		v-38.3C375.1,400.3,364.2,400.3,364.2,400.3z M249,442.3c0,0.3-0.1,0.4-0.5,0.4h-9.3c-0.3,0-0.4-0.1-0.4-0.4V440
		c0-0.3,0.1-0.4,0.4-0.4l1.2-0.1c0.9-0.1,1.1-0.4,1.1-1.3V418c0-0.6-0.2-0.9-1.1-1l-1.1-0.1c-0.3,0-0.4-0.2-0.4-0.5V414
		c0-0.2,0.1-0.4,0.4-0.4h6.7c0.3,0,0.4,0.2,0.4,0.4v24.1c0,0.9,0.2,1.2,1.1,1.3l1.2,0.1c0.3,0,0.4,0.2,0.4,0.5L249,442.3L249,442.3z
		 M261.7,424.4c0,5.5-2.9,7.4-8.6,7.4h-4.8c-0.3,0-0.4-0.2-0.4-0.6v-2.1c0-0.3,0.1-0.6,0.6-0.6h4.2c3.2,0,4.2-1.3,4.2-4.1V421
		c0-2.8-0.9-4.1-4.2-4.1h-4.2c-0.6,0-0.6-0.2-0.6-0.6v-2.1c0-0.4,0.1-0.6,0.4-0.6h4.8c5.7,0,8.6,1.8,8.6,7.4V424.4z M279,441.1
		c0,0.4-0.1,0.6-0.4,0.8c-0.9,0.4-2.8,1.3-5.5,1.3c-3.5,0-5.9-1.1-5.9-5.5v-10.1c0-1.1-0.2-1.2-1.1-1.3l-0.8-0.2
		c-0.3,0-0.4-0.2-0.4-0.5V424c0-0.4,0.1-0.6,0.6-0.7l3-0.4c0.8-0.2,1.6-0.3,2.2-0.3c1.1,0,1.4,0.6,1.4,1.5v12.7
		c0,2.4,0.9,2.8,2.5,2.8c1.1,0,2.3-0.3,3.8-0.7c0.3-0.1,0.6,0,0.6,0.4V441.1z M287.6,442.3c0,0.3-0.1,0.4-0.4,0.6
		c-0.5,0.2-1.6,0.3-2.9,0.3c-3.4,0-4-1.9-4-4.3v-11.2c0-1.1-0.2-1.2-1.1-1.3l-0.8-0.2c-0.3,0-0.4-0.2-0.4-0.5V424
		c0-0.4,0.1-0.6,0.6-0.7l3-0.4c0.8-0.2,1.6-0.3,2.2-0.3c1.1,0,1.4,0.6,1.4,1.5v14.2c0,1.2,0.4,1.5,1.1,1.5c0.3,0,0.5,0,0.9-0.1
		c0.4,0,0.5,0,0.5,0.5V442.3z M297.2,441.9c0,0.2,0,0.2,0,0.4c0,0.2-0.1,0.3-0.3,0.4h-0.1c-0.1,0-0.2,0-0.3,0h-3.3H293
		c-0.1,0-0.2,0-0.2,0c-0.2-0.1-0.4-0.2-0.4-0.6v-0.2v-25c0-1.1-0.1-1.2-1.1-1.3l-0.8-0.1c-0.4-0.1-0.5-0.2-0.5-0.6v-1.7
		c0-0.4,0.1-0.5,0.6-0.6l3.1-0.5c1.2-0.2,1.9-0.3,2.5-0.3c0.8,0,1,0.4,1,1L297.2,441.9L297.2,441.9z M311.5,435.4
		c0,5.3-1.5,7.7-6.8,7.7c-2.4,0-4.6-0.6-5.3-0.9c-0.4-0.2-0.6-0.3-0.6-0.6v-2.1c0-0.4,0.2-0.6,0.5-0.4c0.4,0.2,1.9,0.5,3.3,0.5
		c2.9,0,4-0.7,4-4.2v-5.7c0-3.3-1.1-4.2-4-4.2c-1.5,0-2.7,0.4-3.3,0.6c-0.3,0.1-0.5,0-0.5-0.4v-2c0-0.4,0-0.6,0.4-0.8
		c0.9-0.4,3-1,5.5-1c5.4,0,6.8,2.4,6.8,7.7V435.4z M324.6,442.3c0,0.3-0.1,0.4-0.4,0.6c-0.5,0.2-1.6,0.3-2.9,0.3c-3.4,0-4-1.9-4-4.3
		v-21.9c0-1.1-0.1-1.2-1.1-1.3l-0.8-0.1c-0.4-0.1-0.5-0.2-0.5-0.6v-1.7c0-0.4,0.1-0.5,0.6-0.6l3.1-0.5c1.2-0.2,1.9-0.3,2.5-0.3
		c0.8,0,1,0.4,1,1v25.6c0,1.2,0.4,1.5,1.1,1.5c0.3,0,0.5,0,0.9-0.1c0.4,0,0.5,0,0.5,0.5V442.3z M329.2,416.2c0-1.3,0.2-2.2,2-2.2
		h1.7c1.7,0,2,0.8,2,2.1v0.7c0,1.2-0.2,2.1-2,2.1h-1.7c-1.7,0-2-0.8-2-2.1V416.2z M337,442.3c0,0.3-0.1,0.4-0.4,0.6
		c-0.5,0.2-1.6,0.3-2.9,0.3c-3.4,0-4-1.9-4-4.3v-11.4c0-1.1-0.2-1.2-1.1-1.3l-0.8-0.2c-0.3,0-0.4-0.2-0.4-0.5v-1.7
		c0-0.4,0.1-0.6,0.6-0.7l3-0.4c0.8-0.2,1.6-0.3,2.2-0.3c1.1,0,1.4,0.6,1.4,1.5v14.5c0,1.2,0.4,1.5,1.1,1.5c0.3,0,0.5,0,0.9-0.1
		c0.4,0,0.5,0,0.5,0.5L337,442.3L337,442.3z M346.8,423c0-0.3,0-0.4,0.4-0.5c1.5-0.3,2.7-0.4,4.5-0.4c2.1,0,4.7,0.1,5.5,0.7
		c0.1,0.1,0.2,0.2,0.2,0.4L357,429c0,0.4-0.2,0.5-0.6,0.5h-1.9c-0.3,0-0.4-0.2-0.5-0.5l-0.6-3.2c-0.8-0.1-1.7-0.2-2.9-0.2
		c-1.4,0-2.4,0.2-3.2,0.4c-0.4,0.1-0.5,0-0.5-0.3L346.8,423L346.8,423z M357.9,441.8c0,0.3-0.3,0.4-0.8,0.6
		c-1.5,0.4-4.7,0.7-7.3,0.7c-7.4,0-9.1-3-9.1-8.5v-4.4c0-3.4,0.8-5.5,3.8-7.1c0.8-0.4,1-0.1,1,0.4v11.1c0,3.7,1.5,4.9,5.3,4.9
		c3.1,0,5.7-0.5,6.6-0.7c0.4,0,0.6,0.2,0.6,0.6L357.9,441.8L357.9,441.8z"/>
	<path fill="#6D2077" d="M550.8,400.3H394.5c0,0-10.9,0-10.9,10.9v38.3c0,0,0,10.9,10.9,10.9h156.4c10.9,0,10.9-10.9,10.9-10.9
		v-38.3C561.8,400.3,550.8,400.3,550.8,400.3z M408.5,417.6v24.7c0,0.2-0.1,0.4-0.4,0.4h-6.8c-0.3,0-0.4-0.2-0.4-0.4V440
		c0-0.3,0.1-0.4,0.4-0.5l1.4-0.1c0.8-0.1,0.9-0.3,0.9-1v-20.7c0-0.6-0.2-0.8-0.9-1l-0.8-0.1c-0.2,0-0.4-0.2-0.4-0.5v-2
		c0-0.2,0.1-0.4,0.4-0.4h8.3c0.3,0,0.4,0.2,0.4,0.4v2c0,0.3-0.1,0.4-0.4,0.5l-0.8,0.1C408.7,416.8,408.5,417,408.5,417.6z
		 M421.8,442.1c0,0.4-0.1,0.6-0.5,0.6h-10.6c-0.6,0-0.6-0.1-0.6-0.6v-2.5c0-0.4,0.2-0.6,0.6-0.6l7.1-0.3c0.4,0,0.6-0.2,0.7-0.6
		l1.3-4.6c0.1-0.4,0.3-0.6,0.6-0.6h1.6c0.4,0,0.6,0.1,0.6,0.6L421.8,442.1z M426.5,416.2c0-1.3,0.2-2.2,2-2.2h1.7c1.7,0,2,0.8,2,2.1
		v0.7c0,1.2-0.2,2.1-2,2.1h-1.7c-1.7,0-2-0.8-2-2.1V416.2z M434.4,442.3c0,0.3-0.1,0.4-0.4,0.6c-0.5,0.2-1.6,0.3-2.9,0.3
		c-3.4,0-4-1.9-4-4.3v-11.4c0-1.1-0.2-1.2-1.1-1.3l-0.8-0.2c-0.3,0-0.4-0.2-0.4-0.5v-1.7c0-0.4,0.1-0.6,0.6-0.7l3-0.4
		c0.8-0.2,1.6-0.3,2.2-0.3c1.1,0,1.4,0.6,1.4,1.5v14.5c0,1.2,0.4,1.5,1.1,1.5c0.3,0,0.5,0,0.9-0.1c0.4,0,0.5,0,0.5,0.5V442.3z
		 M444,441.9c0,0.2,0,0.2,0,0.4c0,0.2-0.1,0.3-0.3,0.4h-0.1c-0.1,0-0.2,0-0.3,0H440h-0.2c-0.1,0-0.2,0-0.2,0
		c-0.2-0.1-0.4-0.2-0.4-0.6v-0.2v-25c0-1.1-0.1-1.2-1.1-1.3l-0.8-0.1c-0.4-0.1-0.5-0.2-0.5-0.6v-1.7c0-0.4,0.1-0.5,0.6-0.6l3.1-0.5
		c1.2-0.2,1.9-0.3,2.5-0.3c0.8,0,1,0.4,1,1L444,441.9L444,441.9z M458.2,435.4c0,5.3-1.5,7.7-6.8,7.7c-2.4,0-4.6-0.6-5.3-0.9
		c-0.4-0.2-0.6-0.3-0.6-0.6v-2.1c0-0.4,0.2-0.6,0.5-0.4c0.4,0.2,1.9,0.5,3.3,0.5c2.9,0,4-0.7,4-4.2v-5.7c0-3.3-1.1-4.2-4-4.2
		c-1.5,0-2.7,0.4-3.3,0.6c-0.3,0.1-0.5,0-0.5-0.4v-2c0-0.4,0-0.6,0.4-0.8c0.9-0.4,3-1,5.5-1c5.4,0,6.8,2.4,6.8,7.7V435.4z
		 M477.6,429c0,0.4-0.2,0.6-0.6,0.6h-2.1c-0.4,0-0.6-0.1-0.6-0.6l-0.4-3c-1.3,0.1-3,0.7-4.5,1.8v10.6c0,0.8,0.4,1.1,1.2,1.2l2.3,0.2
		c0.3,0,0.4,0.2,0.4,0.6v2c0,0.2-0.1,0.4-0.4,0.4h-10.4c-0.3,0-0.4-0.2-0.4-0.4v-2.1c0-0.3,0.1-0.4,0.4-0.5l0.8-0.1
		c0.9-0.1,1.2-0.5,1.2-1.1v-11c0-1.1-0.2-1.2-1.1-1.3l-0.8-0.2c-0.3,0-0.4-0.2-0.4-0.5v-1.7c0-0.4,0.1-0.6,0.6-0.7l3-0.4
		c0.8-0.2,1.6-0.3,2.2-0.3c1.1,0,1.4,0.6,1.4,1.5v0.7c1.6-1.3,3.9-2.5,6.5-2.5c1.5,0,2.1,0.2,2.1,1.1L477.6,429z M494,442.1
		c0,0.2,0,0.4-0.4,0.6c-0.6,0.2-2.1,0.5-4.2,0.5c-6,0-7.2-2.8-7.2-5.9v-0.6c0-3.2,1.1-6,7.2-6c2.1,0,3.4,0.2,4.1,0.3
		c0.4,0.1,0.4,0.3,0.4,0.6v2.2c0,0.3-0.2,0.4-0.5,0.4c-1.3-0.1-1.7-0.1-2.8-0.1c-2.3,0-3.6,0.7-3.6,2.5v0.7c0,1.9,1.3,2.5,3.6,2.5
		c1.1,0,1.9-0.1,2.9-0.4c0.5-0.1,0.5,0,0.5,0.4V442.1z M502.6,442.3c0,0.3-0.1,0.4-0.4,0.6c-0.5,0.2-1.6,0.3-2.9,0.3
		c-3.4,0-4-1.9-4-4.3v-10c0-2.6-0.7-3.4-3.8-3.4c-1.3,0-3,0-3.9,0.2l-0.6,3c-0.1,0.4-0.2,0.6-0.6,0.6h-2c-0.4,0-0.5-0.1-0.6-0.6
		l-0.3-4.9c0-0.7-0.1-0.9,0.4-1.1c0.8-0.2,4.6-0.5,7.6-0.5c5.4,0,8.6,0.7,8.6,6.8v9.4c0,1.2,0.4,1.5,1.1,1.5c0.3,0,0.5,0,0.9-0.1
		c0.4,0,0.5,0,0.5,0.5L502.6,442.3L502.6,442.3z M521,429c0,0.4-0.2,0.6-0.6,0.6h-2.1c-0.4,0-0.6-0.1-0.6-0.6l-0.4-3
		c-1.3,0.1-3,0.7-4.5,1.8v10.6c0,0.8,0.4,1.1,1.2,1.2l2.3,0.2c0.3,0,0.4,0.2,0.4,0.6v2c0,0.2-0.1,0.4-0.4,0.4H506
		c-0.3,0-0.4-0.2-0.4-0.4v-2.1c0-0.3,0.1-0.4,0.4-0.5l0.8-0.1c0.9-0.1,1.2-0.5,1.2-1.1v-11c0-1.1-0.2-1.2-1.1-1.3L506,426
		c-0.3,0-0.4-0.2-0.4-0.5v-1.7c0-0.4,0.1-0.6,0.6-0.7l3-0.4c0.8-0.2,1.6-0.3,2.2-0.3c1.1,0,1.4,0.6,1.4,1.5v0.7
		c1.6-1.3,3.9-2.5,6.5-2.5c1.5,0,2.1,0.2,2.1,1.1L521,429z M524.7,425.9c-0.2,0-0.3-0.2-0.3-0.5l-0.1-2.5c0-0.2,0.1-0.4,0.4-0.4h8.2
		c0.5,0,0.5,0.2,0.5,0.7v1.9c0,0.3-0.1,0.5-0.3,0.5c-1.4,0.1-1.9,0-1.4,1.3l3,8.5c0.2,0.4,0.3,0.8,0,1.4l-1.6,4.2
		c-0.2,0.5-0.9,0.5-1.1-0.1l-5.2-13.8c-0.3-0.8-0.4-1-1-1.1L524.7,425.9z M546,425.2c0,0.3-0.1,0.4-0.4,0.5l-1.1,0.2
		c-0.4,0.1-0.6,0.5-6.8,17.5c-2.3,6.2-3.8,7.9-8.5,7.9c-1.4,0-2.2-0.1-2.7-0.2c-0.4-0.1-0.6-0.3-0.6-0.6v-1.9c0-0.3,0.2-0.4,0.5-0.4
		c0.4,0,1.6,0.2,2.3,0.2c2.7,0,3.7-1.2,5.3-5.6l5.9-15.9c0.4-0.9,0-1.1-1-1.2l-0.4,0c-0.2,0-0.3-0.2-0.3-0.4v-1.9
		c0-0.4,0-0.7,0.5-0.7h6.8c0.3,0,0.4,0.2,0.4,0.4L546,425.2L546,425.2z"/>
</g>
</svg>
