<?xml version="1.0" encoding="utf-8"?>
<!-- Generator: Adobe Illustrator 18.1.1, SVG Export Plug-In . SVG Version: 6.00 Build 0)  -->
<svg version="1.1" id="Layer_1" xmlns="http://www.w3.org/2000/svg" xmlns:xlink="http://www.w3.org/1999/xlink" x="0px" y="0px"
	 viewBox="0 0 1500 256" enable-background="new 0 0 1500 256" xml:space="preserve">
<path fill="#050505" d="M1336.8,223.4c-26.5,0-48.7,0-70.8,0c-1.5,0-3.7,1-4.5-1c-0.6-1.5,1-2.7,1.9-3.8
	c7.1-9.2,14.3-18.3,21.3-27.6c1.8-2.5,4-2.5,6.6-2.5c29.3,0,58.7,0,88,0c5,0,10-0.2,15-0.3c4.5-0.1,8.1-3.5,8.4-7.5
	c0.4-6.6-1.6-9.9-6.9-10.7c-4.1-0.7-8.2-1.2-12.4-1.2c-26.5-0.1-53,1.1-79.5-0.7c-15.8-1-30.1-6.6-36.6-23
	c-8.1-20.4,0.3-44.6,24.2-52.2c10.6-3.4,21.4-4.6,32.3-4.6c36.8-0.2,73.6-0.1,110.5-0.1c1.2,0,2.9-0.8,3.7,0.6
	c1,1.7-0.9,2.6-1.7,3.7c-6.4,8.5-12.9,16.9-19.2,25.4c-2.8,3.9-5.9,5.8-11.1,5.8c-30.3-0.2-60.6,0-91,0.2c-7.1,0.1-10,3-10,8.9
	c0,6,4,9.4,11,9.4c12.7,0,25.3-0.1,38-0.1c13.2,0,26.3-0.2,39.5,0.1c11.9,0.3,23.6,1.6,34.2,7.9c7.7,4.5,12,11.1,14.5,19.7
	c4,13.7,0.2,25.4-7.3,36.3c-6.1,8.9-15.9,12.8-26.2,14.7C1383.5,225.6,1357.9,222.3,1336.8,223.4z"/>
<path fill="#050505" d="M395.9,170.7c-16.8-0.1-33.7,0.8-50.4-0.8c-14.3-1.4-27.5-6.4-39.5-14.6c-13.4-9.2-22.4-21.7-26.5-37.3
	c-5.3-20.4-1.1-39.2,12.6-55.3c11.3-13.4,26.2-20.7,43.3-24.1c10.8-2.1,21.5-3.5,32.5-3.4c27.3,0.2,54.7,0.1,82,0.1
	c1.4,0,3.3-0.9,4.1,0.7c0.9,1.8-0.9,2.9-1.9,4.2c-6.6,8.5-13.3,17-19.7,25.7c-2.7,3.6-5.4,5.4-10.3,5.4c-23.8-0.2-47.7-0.8-71.4,0.5
	c-15.9,0.8-33.9,14.4-31.4,36c1.5,13.3,13.9,23.8,24.7,26.5c9.5,2.4,19.1,1.7,28.7,1.9c11,0.2,22-0.1,33,0.1
	c3.9,0.1,4.9-1.3,4.6-4.9c-0.3-3.3-0.3-6.7,0-10c0.4-4.1-1.4-5.1-5.2-5.1c-19.8,0.1-39.7,0.1-59.5,0c-1.2,0-2.9,0.9-3.6-0.7
	c-0.6-1.5,1.1-2.2,1.9-3.1c6.4-7.9,12.8-15.7,19.2-23.6c1.4-1.7,2.9-2.4,5.1-2.4c26.5,0.1,53,0.1,79.5,0c3.1,0,3.5,1.2,3.5,3.8
	c-0.1,25.5-0.1,51,0,76.5c0,3.4-1.1,4.2-4.3,4.1C429.8,170.6,412.8,170.7,395.9,170.7z"/>
<path fill="#050505" d="M133.2,170.7c-16.8-0.1-33.7,0.8-50.4-0.8c-14.5-1.4-27.9-6.5-39.9-14.8c-13.5-9.4-22.4-22.2-26.4-37.9
	c-5.2-20.3-0.4-38.8,13-54.7c11.2-13.2,26-20.4,42.9-23.9c12.1-2.5,24.2-3.6,36.5-3.5c26.2,0.2,52.3,0,78.5,0.1c1.3,0,3.2-1,3.9,0.9
	c0.6,1.7-1.1,2.6-1.9,3.8c-6.6,8.7-13.3,17.4-19.9,26.2c-2.5,3.4-5.3,5.2-10,5.1c-23.8-0.2-47.7-0.6-71.4,0.5
	C72.2,72.5,54.3,85.8,56.4,107c1.4,14,13.5,24.1,24.6,27.1c10.2,2.7,20.4,1.6,30.7,1.9c10.5,0.2,21-0.1,31.5,0.1
	c3.2,0.1,4.5-0.8,4.3-4.2c-0.3-3.6-0.3-7.3,0-11c0.3-3.9-1.3-4.8-4.9-4.8c-19.8,0.1-39.6,0.1-59.5,0c-1.3,0-3.3,1.1-4-0.8
	c-0.5-1.4,1.3-2.1,2.1-3.1c6.3-7.7,12.8-15.3,19-23.1c1.6-2.1,3.4-2.8,5.9-2.8c26,0.1,52,0.1,78,0c3.2,0,4.3,0.7,4.3,4.1
	c-0.2,25.3-0.2,50.6,0,76c0,3.6-1.2,4.4-4.6,4.4C166.8,170.6,150,170.7,133.2,170.7z"/>
<path fill="#050505" d="M802.6,223.3c-24.2,0-48.3,0-72.5,0c-1.3,0-3,0.7-3.8-0.5c-1-1.6,0.9-2.7,1.6-3.8c6.3-9,12.7-17.8,19.1-26.7
	c1.9-2.7,4.3-4,8-3.9c16,0.6,32-0.7,48,0.8c1.1,0.1,2.5,0.8,3.1-0.7c0.6-1.4-0.5-2.5-1.3-3.6c-5.2-7.5-10.3-15-15.5-22.6
	c-5.6-8.2-11.2-16.4-16.7-24.7c-1.9-2.9-3.2-4.2-5.8-0.3c-13.7,19.8-27.7,39.3-41.6,59c-5.6,8-11.2,16-16.8,24c-1.3,1.9-2.9,3-5.4,3
	c-13.8-0.1-27.7,0-41.5-0.1c-1,0-2.2,0.4-2.8-0.6c-0.8-1.5,0.5-2.5,1.2-3.5c9.8-13.8,19.6-27.6,29.4-41.4
	c16.9-23.8,33.7-47.7,50.6-71.5c5.7-8,11.5-15.8,21.8-18.7c13-3.6,24.6,0.2,32.3,10.4c9.3,12.3,17.8,25.2,26.6,37.8
	c17.9,25.8,35.8,51.6,53.5,77.5c2,2.9,6.5,6.1,5,9c-1.5,2.9-6.7,1-10.2,1C847,223.4,824.8,223.3,802.6,223.3z"/>
<path fill="#060606" d="M477.4,155.3c0-20.8,0.1-41.6-0.1-62.5c0-3.7,1-4.8,4.8-4.8c10.7,0.3,21.3,0.3,32,0c4.2-0.1,5.6,1.1,5.5,5.3
	c-0.2,12.7,0.1,25.3-0.2,38c-0.1,3.8,1.2,4.8,4.9,4.8c23.7-0.1,47.3-0.1,71,0c3.9,0,5.2-1.2,5.1-5.2c-0.2-12.5,0.1-25-0.2-37.5
	c-0.1-4.5,1.4-5.6,5.7-5.5c10.5,0.3,21,0.2,31.5,0c3.2-0.1,4.4,1,4.4,4.3c-0.1,42.3-0.1,84.6,0,126.9c0,3.6-1.6,4.1-4.6,4.1
	c-11-0.1-22-0.2-33,0c-3.8,0.1-4-1.8-3.9-4.7c0.1-14.2-0.1-28.3,0.1-42.5c0.1-3.6-0.9-4.9-4.7-4.9c-24,0.1-48,0.1-72,0
	c-3.3,0-4.3,1.1-4.2,4.3c0.2,14.2,0,28.3,0.1,42.5c0,4-0.9,5.5-5.4,5.3c-10.3-0.4-20.7-0.3-31-0.1c-4.4,0.1-6-0.8-6-5.7
	C477.6,197,477.4,176.2,477.4,155.3z"/>
<path fill="#050505" d="M1247.1,89.3c-4.9,3.8-9.7,7.7-14.7,11.4c-16.6,12.4-33.2,24.8-49.9,37.1c-5.7,4.2-11.6,8.3-17.5,12.2
	c-2.6,1.7-2.4,2.4,0,4.1c17.4,12.2,33.6,25.9,50.4,38.9c11.3,8.7,22.4,17.7,33.5,26.6c1,0.8,2.1,1.6,2.3,3.1c-1,1.4-2.5,0.6-3.7,0.6
	c-17.5,0-35,0-52.5,0.1c-2.8,0-5.1-0.7-7.2-2.6c-19.7-17.4-39.6-34.6-59.4-51.9c-0.9-0.8-1.5-2.7-3.1-1.7c-1.1,0.7-0.4,2.1-0.4,3.3
	c0,16.2-0.1,32.3,0.1,48.5c0,3.4-0.8,4.6-4.5,4.5c-10.8-0.3-21.7-0.2-32.5,0c-3.2,0.1-4.3-0.8-4.3-4.2c0.1-42.3,0.1-84.6,0-126.9
	c0-3.4,1.1-4.2,4.4-4.1c11,0.2,22,0.2,33,0c3.2-0.1,3.9,1.1,3.9,4c-0.1,15.5-0.1,31-0.2,46.5c0,1.1-0.8,2.5,0.5,3.2
	c1.4,0.8,2-0.8,2.7-1.5c18.9-17.6,39.3-33.3,58.5-50.4c1.3-1.2,2.8-1.6,4.5-1.6c18.5,0,37,0,55.4,0
	C1246.6,88.6,1246.9,88.9,1247.1,89.3z"/>
<path fill="#050505" d="M1014.7,188.5c16.2,0,32.3,0,48.5,0c1.2,0,2.9-0.8,3.7,0.7c0.8,1.5-0.8,2.3-1.6,3.3
	c-6.5,8.6-13.2,17.1-19.6,25.8c-2.5,3.4-5.3,5.3-10,5.2c-24.5-0.6-49,1-73.4-1c-27.5-2.3-56.6-17.6-66.5-48.1
	c-7.9-24.5-1.4-51.1,21.1-68.4c17.1-13.1,37-17.3,57.8-17.6c29.7-0.5,59.3-0.1,89-0.1c1.2,0,2.9-0.8,3.5,0.9c0.5,1.3-0.9,2-1.5,2.9
	c-6.5,8.6-13.1,17.2-19.5,25.8c-2.8,3.8-5.9,5.9-11.1,5.9c-22.8-0.2-45.7-1.1-68.5,0.4c-14.7,1-28.4,9.8-31.8,26.2
	c-3,14.6,3.4,27.5,19,34.5c7.4,3.3,15.3,3.6,23.2,3.6C989.3,188.6,1002,188.5,1014.7,188.5z"/>
<path fill="#060606" d="M255.5,103.5c0,20.7-0.1,41.3,0.1,62c0,3.8-0.9,5.4-4.9,5.3c-10.8-0.2-21.7-0.2-32.5,0
	c-3.7,0.1-4.9-1.1-4.8-4.9c0.1-41.6,0.1-83.3,0-124.9c0-4.5,1.2-6.1,6-5.9c10.3,0.4,20.7,0.3,31,0c4.4-0.1,5.3,1.6,5.3,5.5
	C255.4,61.5,255.5,82.5,255.5,103.5z"/>
<path fill="#060606" d="M1399,70.4c0,2.5-0.1,5,0,7.5c0.2,2.5-0.5,3.7-3.3,3.6c-2.6,0-3.8-0.8-3.3-3.5c0.8-4.5-1.5-5.5-5.4-5.1
	c-1.5,0.2-3,0.2-4.5,0c-3.6-0.4-4.9,1.1-4.4,4.6c0.4,2.4,0,4-3.2,4.1c-3.3,0-3.8-1.4-3.7-4.2c0.2-5,0.1-10,0-15
	c-0.1-2.6,1-3.5,3.5-3.6c2.8-0.1,3.7,1.3,3.3,3.6c-0.5,3.6,1,4.8,4.5,4.5c1.8-0.2,3.7-0.1,5.5,0c3.1,0.2,4.8-0.6,4.3-4.2
	c-0.3-2.1,0.1-4,3.1-3.9c3,0.1,3.6,1.7,3.5,4.2C1398.9,65.4,1398.9,67.9,1399,70.4C1398.9,70.4,1399,70.4,1399,70.4z"/>
<path fill="#060606" d="M1367.7,76.5c-1.5,3.4-3.6,5.1-7.6,5c-6-0.3-12.1,0.4-16.8-4.4c-5.4-5.5-3.7-13.9,3.5-16.6
	c6.2-2.4,12.8-1.7,19.3-1.7c2.1,0,2.1,1.3,1,2.6c-1.7,2.1-3.3,4.1-6.6,3.6c-2.6-0.4-5.3,0-8-0.1c-3.5-0.1-5.4,2.2-5.9,5
	c-0.5,3,1.6,4.6,4.6,5.3c3.5,0.9,7,0.3,10.4,0.6C1363.7,76.1,1365.7,75.2,1367.7,76.5z"/>
<path fill="#060606" d="M1426,81.4c-2.7,0-5.3,0.1-8,0c-1.4-0.1-3.5,0.8-3.9-1c-0.4-1.9,1.6-3.3,3.1-3.9c1.6-0.6,3.6-0.5,5.4-0.5
	c2.6,0,4.1-0.1,2-3.3c-4.4-6.7-4.3-6.8-9-0.2c-1.6,2.3-3.5,4.5-4.8,6.9c-1.8,3.2-4.7,2-7.1,1.8c-1.6-0.2-0.9-1.6-0.2-2.7
	c4.1-5.8,8.1-11.7,12.4-17.4c2.2-2.9,5.3-3.8,7.9-0.4c4.6,6,8.9,12.3,13.3,18.5c1.4,2-0.3,2.1-1.6,2.2
	C1432.3,81.4,1429.1,81.4,1426,81.4z"/>
</svg>
