<?xml version="1.0" encoding="utf-8"?>
<!-- Generator: Adobe Illustrator 18.1.1, SVG Export Plug-In . SVG Version: 6.00 Build 0)  -->
<svg version="1.1" id="Layer_1" xmlns="http://www.w3.org/2000/svg" xmlns:xlink="http://www.w3.org/1999/xlink" x="0px" y="0px"
	 width="400px" height="94.4px" viewBox="0 0 400 94.4" enable-background="new 0 0 400 94.4" xml:space="preserve">
<g>
	<path d="M204.4,47.6h-37.8v14.3h18.9c-3.5,10.1-12.3,16.7-23.3,16.7c-14.4,0-25.1-11-25.1-26.8c0-15.5,10.7-26.6,25.1-26.6
		c7.5,0,14,3,18.5,8.2h0.3l12.7-10c-7.8-8.6-19-14-31.4-14c-23.6,0-42.6,19.2-42.6,42.5c0,23.6,19.1,42.6,42.6,42.6
		c19.9,0,36.8-13.9,41.3-32.6c0.8-3.2,1.2-6.6,1.2-10.1C204.6,50.4,204.5,49,204.4,47.6z"/>
	<path d="M213.9,93.3V10.4h16.8v67.5h29.2v15.4H213.9z"/>
	<path d="M314.6,73.7h-24.9l-5.8,19.7h-18l26.8-82.9h18.8l26.8,82.9h-18L314.6,73.7z M309.1,59.4c0,0-7.3-25.7-8.2-31.1
		c-1.1,6.5-8.2,31.1-8.2,31.1H309.1z"/>
	<path d="M344.5,93.3V10.4h25.8c14.2,0,21.5,8.4,21.5,19.3c0,7.6-3.6,12.4-9,15.5c10.5,3.6,17.2,11.5,17.2,22.5
		c0,14.4-9.4,25.6-31.3,25.6H344.5z M367.9,40.2c9.8,0,11.8-17.6,0-17.6h-6.6v17.6H367.9z M370.9,79.5c16.7,0,15.9-24,0.1-24h-9.7
		v24H370.9z"/>
	<path d="M84.9,47.6H47.1v14.3h18.9C62.4,72,53.6,78.6,42.6,78.6c-14.4,0-25.1-11-25.1-26.8c0-15.5,10.7-26.6,25.1-26.6
		c7.5,0,14,3,18.5,8.2h0.3l12.7-10c-7.8-8.6-19-14-31.4-14C19.1,9.3,0,28.5,0,51.8c0,23.6,19.1,42.6,42.6,42.6
		c19.9,0,36.8-13.9,41.3-32.6c0.8-3.2,1.2-6.6,1.2-10.1C85.1,50.4,85.1,49,84.9,47.6z"/>
	<path d="M81.9,8.4C87.1,3.2,94.3,0,102.2,0c8,0,15.2,3.2,20.4,8.4l-4.5,4.5c-4.1-4.1-9.7-6.6-15.9-6.6c-6.2,0-11.8,2.5-15.9,6.6
		L81.9,8.4z"/>
	<path d="M94.8,21.4c1.9-1.9,4.5-3.1,7.4-3.1c2.9,0,5.5,1.2,7.4,3.1l4.7-4.7c-3.1-3.1-7.4-5-12.2-5c-4.7,0-9,1.9-12.2,5L94.8,21.4z"
		/>
	<path d="M93.8,28.3V86c0,4.7,3.8,8.5,8.5,8.5s8.5-3.8,8.5-8.5V28.3H93.8z"/>
</g>
</svg>
